P2
# pobarvano z mojim programom
9 9 255
0 0 0 0 0 0 0 0 0 
0 255 255 255 0 128 128 128 0 
0 255 255 255 0 128 128 128 0 
0 255 255 0 128 128 128 128 0 
0 0 0 128 128 128 0 0 0 
0 128 128 128 128 0 255 255 0 
0 128 128 128 0 255 255 255 0 
0 128 128 128 0 255 255 255 0 
0 0 0 0 0 0 0 0 0 
