P2
# le katera slika bi to lahko bila
9 #to je sirina
9 255
0 0 0 0 0 0 0 0 0
0 255 255 255 0 255 255 255 0
0 255 255 255 0 255 255 255 0
0 255 255 0 255 255 255 255 0
0 0 0 255 255 255 0 0 0
0 255 255 255 255 0 255 255 0
0 255 255 255 0 255 255 255 0
0 255 255 255 0 255 255 255 0
0 0 0 0 0 0 0 0 0